<svg width="56" height="56" viewBox="0 0 56 56" xmlns="http://www.w3.org/2000/svg"><path d="M47.8 47.8c-5 5-12 8.2-19.8 8.2-7.7 0-14.7-3-19.8-8.2-5-5-8.2-12-8.2-19.8 0-7.7 3-14.7 8.2-19.8 5-5 12-8.2 19.8-8.2 7.7 0 14.7 3 19.8 8.2 5 5 8.2 12 8.2 19.8 0 7.7-3 14.7-8.2 19.8zM46.6 9.4C41.8 4.7 35.2 1.7 28 1.7c-7.2 0-13.8 3-18.6 7.7C4.7 14.2 1.7 20.8 1.7 28c0 7.2 3 13.8 7.7 18.6 4.8 4.7 11.4 7.6 18.6 7.6 7.2 0 13.8-3 18.6-7.6 4.7-4.8 7.6-11.4 7.6-18.6 0-7.2-3-13.8-7.6-18.6zM36.2 29.2c-1.4 1.4-3.4 2.3-5.6 2.3h-6v1.8h7.8c.5 0 1 .3 1 .8 0 .6-.5 1-1 1h-8v5.3h2.7c.6 0 1 .3 1 .8 0 .6-.4 1-1 1h-7c-.4 0-.7-.4-.7-1 0-.4.3-.7.8-.7h2.7V35H20c-.4 0-.8-.4-.8-1 0-.4.4-.7 1-.7h2.5v-1.8H20c-.4 0-.8-.4-.8-1 0-.4.4-.7 1-.7h2.5V17.5H20c-.4 0-.7-.4-.7-1 0-.4.3-.8.8-.8h10.6c2.2 0 4 1 5.5 2.3h.2c1.4 1.5 2.3 3.5 2.3 5.6 0 2.2-1 4-2.3 5.5v.2zm-1.2-10c-1.2-1-2.7-1.7-4.4-1.7h-6v12.3h6c1.7 0 3.2-.7 4.4-1.8 1-1.2 1.8-2.7 1.8-4.4 0-1.7-.7-3.2-1.8-4.3z"/></svg>