<svg width="46" height="56" viewBox="0 0 46 56" xmlns="http://www.w3.org/2000/svg"><path d="M23.5 56h-.7-.3C-.5 48 0 24.5 0 24.3V8.2c0-.5.3-1 .7-1l21.7-7c.2-.2.4-.2.6 0 .2-.2.4-.2.6 0l21.7 7c.4 0 .7.5.7 1v16.2c0 .2.6 23.8-22.5 31.5zM44 24.4V9L23 2 2 9v15.4c0 1-.5 22.2 21 29.6 21.6-7.4 21-29.3 21-29.5zm-20.6 25H23h-.3C6.5 43 5.7 24.8 5.7 24.6V12c0-.4.3-.8.7-1l16.2-5.5h1L39.7 11c.4.2.7.6.7 1v12.7c0 .2-.8 18.3-17 24.7zm15-36.7L23 7.5 7.8 12.8v12S8.5 41.2 23 47.2c14.6-6 15.4-22.5 15.4-22.7V12.8zM21.6 37.3c-.3 0-.6 0-.7-.3l-8.4-9c-.4-.3-.4-1 0-1.3.4-.4 1-.4 1.4 0l7.5 8 11.6-14c.5-.5 1-.6 1.5-.2.5.3.5 1 .2 1.4L22.3 37s-.4.3-.7.3z"/></svg>