<svg width="46" height="56" viewBox="0 0 46 56" xmlns="http://www.w3.org/2000/svg"><path d="M44 32.4l-.2.2c-2 4.3-5.7 8-10.5 9.8-2.5 1-5.2 1.6-8 1.6-8.3 0-15.7-5-19-12.7-2-5-2-10.6 0-15.7 2.2-5 6-9 11.2-11 2.5-1.2 5.2-1.7 8-1.7 8.3 0 15.7 5 19 12.6 2.3 5.6 2 11.7-.6 16.8zm-2.2.2c-1.2-.3-2.4-.5-3.7-.6 0 1.7 0 3.2-.4 4.6 0 .5-.3 1-.5 1.5 2-1.4 3.6-3.3 4.8-5.4zm-8.4 7.8c2-1.4 3-4.5 3-8.5-2 0-4 .4-6 1l3 7.4zm-1.7.6l-3-7.3c-2 1-3.6 2-5 3.5l1.2 1c2.4 2.2 4.8 3.2 6.7 2.8zM26 22.3l7.3-3c-1.4-3.2-3-6-5-8.2-1.6 1.6-3.5 3-5.5 3.8l3 7.5zm-5-6.8c-2 .8-4.2 1.2-6.5 1.3.3 3 1 6 2.3 9.2l7.4-3-3-7.5zm4 9l-7.5 3.2c1.3 3 3 6 5 8C24 34.4 26 33 28 32.2l-3-7.4zm.4 17.7h2c-1.2-.6-2.4-1.5-3.7-2.6l-1.3-1c-.8.8-1.5 1.8-2 3 1.5.4 3.2.6 5 .6zM18.6 41c.7-1.4 1.6-2.7 2.6-4-2-2.3-4-5.3-5.4-8.6l-7.4 3c2 4.5 5.7 7.8 10.2 9.6zM8 16.3c-1.8 4.3-2 9-.3 13.5l7.4-3c-1.2-3.5-2-7-2.3-10-1.5-.2-3-.4-4.5-1 0 .2 0 .4-.2.5zm1-2c1.2.3 2.4.5 3.7.6V13c0-1.7.5-3 1-4.4-2 1.5-3.5 3.3-4.7 5.5zm8.4-7.7c-1.6 1-2.7 3.5-3 6.7V15c2 0 4-.4 6-1l-3-7.4zM19 6l3 7.2c2-1 3.6-2 5-3.4l-1-1.2c-2.6-2-5-3-7-2.7zm6.4-1.3h-2c1 .7 2.4 1.5 3.7 2.6.5.3 1 .7 1.3 1.2 1-1 1.6-2 2.2-3-1.6-.6-3.4-.8-5-.8zM32.2 6c-.7 1.3-1.6 2.6-2.6 3.8 2 2.4 4 5.4 5.4 8.7l7.4-3c-2-4.5-5.8-7.8-10.2-9.5zm11 11l-7.5 3.2 1 3c.2.6 0 1-.6 1.2-.4 0-1 0-1-.6l-1-3-7.4 3 3 7.6c2.2-.8 4.4-1.2 6.6-1.2 0-1-.2-2-.4-3 0-.5.3-1 .7-1 .5-.2 1 .2 1 .6.3 1.2.5 2.3.5 3.4 1.6 0 3 .4 4.6.8 2-4.3 2.2-9.2.5-14zM16.7 3c-.4.2-1 0-1.2-.5V2C4 7.4-1.5 21 3.5 32.6c3.6 8.7 12 14 21 14.5v-.3c0-.5.3-1 .8-1s1 .5 1 1v.3c2.3 0 4.8-.6 7.2-1.5v-.2c-.3-.5 0-1 .4-1.2.4 0 1 0 1 .6l.6 1v.8c0 .2-.3.4-.5.5-2.8 1-5.8 1.7-8.7 1.8v1.8H34c2.2 0 4 1.6 4.4 3.6h.4c.5 0 1 .4 1 1 0 .4-.5.8-1 .8h-27c-.3 0-.7-.4-.7-1 0-.4.5-.8 1-.8h.3c.5-2 2.3-3.6 4.4-3.6h7.8v-1.8C15 48.4 6 42.6 2 33c-5.4-12.7.7-27.6 13.7-33 .4 0 1 0 1 .6l.6 1c.2.5 0 1-.5 1.2zm0 49.6c-1.2 0-2.2.8-2.6 1.8h22.4c-.4-1-1.4-1.8-2.5-1.8H16.8z"/></svg>