<svg width="30" height="24" viewBox="0 0 30 24" xmlns="http://www.w3.org/2000/svg"><path d="M28.5 22.3c0 1-1 1.7-2 1.7h-.2l-23-2.5c-1 0-2-1-2-2-.7-.2-1.3-1-1.3-2V2c0-1 1-2 2-2h23c1 0 2 1 2 2v2.3l1.2.2c.5 0 1 .3 1.3.7.4.4.5 1 .5 1.4l-1.5 15.7zM26 2c0-.6-.5-1-1-1H2c-.6 0-1 .4-1 1v.4h25V2zm0 2.7V3.4H1v3h25V4.7zm0 2.6H1v10.3c0 .6.4 1 1 1h23c.5 0 1-.4 1-1V7.3zm2.8-1.6c-.2-.2-.4-.4-.7-.4h-1v12.2c0 1-1 2-2 2H2.4c0 .4.4.8 1 1l23 2.4c.5 0 1-.3 1-1L29 6.5c0-.2 0-.5-.2-.7zm-4.8 11h-8c-.3 0-.5-.2-.5-.5v-4.4c0-.3.2-.5.5-.5h8c.3 0 .5.2.5.5v4.4c0 .3-.2.5-.5.5zm-.5-4.5h-7v3.5h7v-3.5zm-11 0H11c-.3 0-.5-.2-.5-.4 0-.3.2-.5.5-.5h1.5c.3 0 .5.2.5.5 0 .2-.2.4-.5.4zm0-2h-4c-.3 0-.5 0-.5-.4 0-.3.2-.5.5-.5h4c.3 0 .5.2.5.5s-.2.5-.5.5zm-6 0h-4c-.3 0-.5 0-.5-.4 0-.3.2-.5.5-.5h4c.3 0 .5.2.5.5s-.2.5-.5.5zm-4 1H9c.3 0 .5.3.5.6 0 .2-.2.4-.5.4H2.5c-.3 0-.5-.2-.5-.4 0-.3.2-.5.5-.5z"/></svg>