<svg width="30" height="26" viewBox="0 0 30 26" xmlns="http://www.w3.org/2000/svg"><path d="M29 7.4zm0 4.7V7.5c0-.5-.4-1-1-1v-6c0-.2 0-.4-.3-.4h-24C1.8 0 0 1.7 0 3.7v18.6c0 2 1.7 3.8 3.8 3.8H28c.6 0 1-.4 1-1v-4.6c.6 0 1-.4 1-1V13c0-.5-.4-1-1-1zM4 1h23.4v5.5h-1V2.8c0-.5-.4-1-1-1H4c-.6 0-1 .5-1 1v3.5c-1-.3-2-1.4-2-2.6C1 2.2 2.3 1 4 1zm0 2.7v-1h21.5v1H3.8zm21.5 1v1.8H3.8v-2h21.5zM28 25H4c-1.6 0-3-1.2-3-2.7v-16c.8.6 1.8 1 3 1H28v4.8H26c-2.3 0-4.2 2-4.2 4.3s2 4 4.2 4H28v4.8zm1-5.5H26c-1.8 0-3.3-1.5-3.3-3.2 0-1.8 1.5-3.3 3.3-3.3H29v6.5zm-4.6-3.2c0 .7.6 1.3 1.4 1.3.8 0 1.4-.6 1.4-1.3 0-.8-.6-1.4-1.4-1.4-.8 0-1.4.5-1.4 1.3zm1.8 0c0 .2-.2.4-.4.4-.3 0-.5-.2-.5-.4 0-.3.2-.5.5-.5.2 0 .4.2.4.5z"/></svg>