<svg xmlns="http://www.w3.org/2000/svg" width="21" height="27" viewBox="0 0 21 27"><path d="M0 27V0h14.5L21 6.6V27H0zM14.7 1.5v4.8h4.8l-4.8-4.8zM20 7.2H14V1H.8v25h19.3V7.3zm-15-1h4.4c.2 0 .4.3.4.5 0 .3-.2.5-.4.5H5c-.3 0-.5-.2-.5-.5 0-.2.2-.4.4-.4zM5 10h11c.3 0 .5 0 .5.3s-.2.5-.4.5H5c-.3 0-.5-.2-.5-.5 0-.2.2-.4.4-.4zm0 3.5h11c.3 0 .5.2.5.4s-.2.4-.4.4H5c-.3 0-.5-.2-.5-.5s.2-.5.4-.5zM5 17h11c.3 0 .5.3.5.5 0 .3-.2.5-.4.5H5c-.3 0-.5-.2-.5-.5 0-.2.2-.4.4-.4zm0 3.7h11c.3 0 .5.2.5.4 0 .4-.2.6-.4.6H5c-.3 0-.5-.2-.5-.5 0 0 .2-.3.4-.3z"/></svg>