<?xml version="1.0" encoding="UTF-8"?>
<!DOCTYPE svg PUBLIC "-//W3C//DTD SVG 1.1//EN" "http://www.w3.org/Graphics/SVG/1.1/DTD/svg11.dtd">
<!-- Creator: CorelDRAW X7 -->
<svg xmlns="http://www.w3.org/2000/svg" xml:space="preserve" width="147mm" height="147mm" version="1.1" style="shape-rendering:geometricPrecision; text-rendering:geometricPrecision; image-rendering:optimizeQuality; fill-rule:evenodd; clip-rule:evenodd"
viewBox="0 0 14700 14700"
 xmlns:xlink="http://www.w3.org/1999/xlink">
 <defs>
  <style type="text/css">
   <![CDATA[
    .str0 {stroke:#36578C;stroke-width:757.58;stroke-linecap:round;stroke-linejoin:round}
    .str1 {stroke:#36578C;stroke-width:378.8;stroke-linecap:round;stroke-linejoin:round}
    .fil2 {fill:none}
    .fil1 {fill:#FEFEFE}
    .fil3 {fill:#36578C}
    .fil0 {fill:#36578C;fill-rule:nonzero}
   ]]>
  </style>
 </defs>
 <g id="Слой_x0020_1">
  <metadata id="CorelCorpID_0Corel-Layer"/>
  <path class="fil0" d="M5406 0l6977 0c636,0 1215,261 1636,680l1 1c419,421 680,1000 680,1636l0 6977c0,1487 -608,2839 -1588,3818 -979,980 -2331,1588 -3818,1588l-6977 0c-637,0 -1217,-261 -1637,-680 -419,-420 -680,-1000 -680,-1637l0 -6977c0,-1487 608,-2838 1588,-3818 980,-980 2331,-1588 3818,-1588zm6977 515l-6977 0c-1345,0 -2567,550 -3454,1437 -887,887 -1437,2109 -1437,3454l0 6977c0,495 203,946 529,1273 327,326 778,529 1273,529l6977 0c1345,0 2567,-550 3454,-1437 887,-887 1437,-2109 1437,-3454l0 -6977c0,-496 -202,-947 -528,-1273l-1 -1c-326,-326 -777,-528 -1273,-528z"/>
  <path class="fil1" d="M12383 515l-6977 0c-1345,0 -2567,550 -3454,1437 -887,887 -1437,2109 -1437,3454l0 6977c0,495 203,946 529,1273 327,326 778,529 1273,529l6977 0c1345,0 2567,-550 3454,-1437 887,-887 1437,-2109 1437,-3454l0 -6977c0,-496 -202,-947 -528,-1273l-1 -1c-326,-326 -777,-528 -1273,-528z"/>
  <g id="_875950720">
   <path class="fil2 str0" d="M2064 4451l1040 0c365,0 772,278 906,617l1446 3669c133,339 541,617 905,617l3577 0c365,0 763,-281 884,-625l697 -1969c122,-344 -77,-625 -442,-625l-4933 0"/>
   <path class="fil3" d="M7071 11035c0,465 -377,842 -842,842 -465,0 -841,-377 -841,-842 0,-465 376,-842 841,-842 465,0 842,377 842,842z"/>
   <path class="fil3" d="M10786 11035c0,465 -377,842 -842,842 -465,0 -842,-377 -842,-842 0,-465 377,-842 842,-842 465,0 842,377 842,842z"/>
   <line class="fil2 str1" x1="6579" y1="7233" x2="9925" y2= "7233" />
   <line class="fil2 str1" x1="6920" y1="8180" x2="9669" y2= "8180" />
  </g>
 </g>
</svg>
