<svg width="38" height="32" viewBox="0 0 38 32" xmlns="http://www.w3.org/2000/svg"><path d="M19 32c-3 0-6.2-.6-9-2-1 .8-3 2-5.4 2-.7 0-1.4 0-2-.3L1 31.2l1.2-1c1.5-1.5 2-3 2-4.3C1.4 23 0 19.5 0 16 0 7.2 8.5 0 19 0s19 7.2 19 16-8.5 16-19 16zm0-30C9.6 2 2 8 2 16c0 3.2 1.3 6.4 3.8 9l.2.2v.3c0 1.3-.2 3-1.3 4.6C7 30 9 28.7 9.4 28.4l.4-.4.6.2c2.6 1.3 5.6 2 8.6 2 9.4 0 17-6.4 17-14.2 0-7.8-7.6-14-17-14zM27.4 15c.8.4 1.5.7 2 1.2.3.4.5 1 .5 1.5 0 .4-.2.8-.4 1l-.8 1-1 .3h-3l-1-.4v-.4-.4l.2-.5h1.2c.2.2.6.3 1 .3.6 0 1 0 1.4-.3.4 0 .5-.3.5-.7 0-.3 0-.6-.2-.8l-1.3-.6c-.3 0-.6-.3-1-.4l-.7-.5-.5-.7-.2-1 .3-1c0-.2.3-.4.6-.6 0-.2.4-.3.8-.5s1-.2 1.5-.2H29l.4.2v1.2c-.2 0-.3.2-.4 0H26l-.2.8c0 .3 0 .5.4.7.2.2.6.4 1.2.5zm-5.5 5H20.7v-5.7c-.5.6-1 1-1 1.5l-.6.8-.2.3c0 .3-.2.4-.2.4h-.5-.3l-.2-.3-1.6-2.5V20H15h-.3v-7.7-.4H16c.2 0 .3 0 .3.2l2.2 3.3 2-3.2.3-.3h1.6v8.1H22zm-11.3-5c.8.4 1.4.7 2 1.2.3.4.5 1 .5 1.5 0 .4 0 .8-.3 1l-1 1-1 .3H8l-1-.4v-.4s0-.3.2-.4v-.5h1.3c.2.2.6.3 1 .3.6 0 1 0 1.4-.3.2 0 .4-.3.4-.7 0-.3 0-.6-.3-.8l-1.2-.6c-.3 0-.6-.3-1-.4l-.7-.5-.4-.7-.2-1c0-.3 0-.6.2-1 0-.2.3-.4.6-.6l1-.5c.3-.2.8-.2 1.3-.2h1.9c0 .2.2.2.3.2v.7c0 .2 0 .4-.2.5 0 0 0 .2-.2 0H9.4c-.2.3-.3.5-.3.8 0 .3.2.5.5.7.2.2.6.4 1.2.5z"/></svg>