<svg width="36" height="36" viewBox="0 0 36 36" xmlns="http://www.w3.org/2000/svg"><path d="M35.4 21.7H4.2c-.3 0-.6-.3-.6-.6V.7c0-.3.3-.6.6-.6h31.2c.3 0 .6.3.6.6V21c0 .4-.3.7-.6.7zm-.6-20.5h-30v14.5h30V1.2zm0 15.7h-30v1h30v-1zm0 2.3h-30v1.2h30v-1.2zM6.6 4.8c1 0 1.8-1 1.8-1.8 0-.3.3-.6.6-.6h21.6c.3 0 .6.3.6.6 0 1 .8 1.8 1.8 1.8.3 0 .6.3.6.6v6c0 .4-.3.7-.6.7-1 0-1.8 1-1.8 2 0 .2-.3.5-.6.5H9c-.3 0-.6-.3-.6-.6 0-1-.8-2-1.8-2-.3 0-.6-.2-.6-.5v-6c0-.4.3-.7.6-.7zm.6 6c1.2.4 2 1.3 2.3 2.5H30c.3-1.2 1.2-2 2.4-2.4V6c-1-.3-2-1.2-2.3-2.4H9.6c-.2 1.2-1.2 2-2.3 2.4v5zm12.6-6c2 0 3.6 1.6 3.6 3.6S21.8 12 19.8 12s-3.6-1.6-3.6-3.6 1.6-3.6 3.6-3.6zm0 6c1.3 0 2.4-1 2.4-2.4 0-1.3-1-2.4-2.4-2.4-1.3 0-2.4 1-2.4 2.4s1 2.5 2.4 2.5zM9.6 23h6c.2 0 .3.2.4.3l3.4 3.5 12-2c.5-.2 1 0 1.5.3.3.4.6 1 .6 1.6 0 .7-.4 1.3-1 1.7l-13 7.7-1 .3c-.3 0-.6 0-1-.2l-6.3-3.2H0v-1.2h6.6V24H0v-1h9.6zm.6 8.6h1.5l6.5 3.3h.7L32 27c.3 0 .4-.4.4-.6 0-.3 0-.5-.3-.6 0-.2-.3-.2-.5-.2l-11 2 .4.4c.4.5.6 1 .6 1.7 0 1.2-1 2.3-2.3 2.3-.6 0-1.2-.3-1.6-.7l-3-3 .7-1 3 3c.3.3.6.5 1 .5.5 0 1-.5 1-1 0-.4 0-.7-.3-1l-4.6-4.7h-5.2v7.4zm-2.4 0H9V24H7.8v7.4z"/></svg>