<svg width="44" height="20" viewBox="0 0 44 20" xmlns="http://www.w3.org/2000/svg"><path d="M43 12.8H42l2.2 6c0 .3 0 .6-.2.8 0 .3-.4.4-.7.4H12.4c-.4 0-.7-.2-1-.6l-2.2-6.6H1c-.6 0-1-.4-1-1V1C0 .5.4 0 1 0h42c.6 0 1 .4 1 1v11c0 .4-.4.8-1 .8zM2 1.8V11h6.7L5.2 1.7H1.8zm16.7 0c.8 1.5 2.6 2.6 4.3 2.6.8 0 1.5-.3 2-.8.3-.5.5-1.2.4-2h-6.7zm8.5 0c0 1-.2 2-.8 2.8-.8 1-2 1.6-3.4 1.6-2.7 0-5.3-2-6.3-4.5h-4.8l2.2 6c0 .6-.2 1-.7 1.2H13c-.3 0-.7-.3-.8-.6L10 1.7H7l3.6 10 2.3 6.6h29l-2.2-6L36 1.6h-9zm15.2 0H38l3.2 9.2h1V1.7zM15.6 16c-.4 0-.7-.3-1-.6l-1-3.4c-.2-.5 0-1 .5-1 .6-.3 1 0 1.2.4l1.2 3.4c.2.5 0 1-.5 1l-.4.2z"/></svg>