<svg width="32" height="32" viewBox="0 0 32 32" xmlns="http://www.w3.org/2000/svg"><path d="M27.3 27.3c-3 3-7 4.7-11.3 4.7-4.3 0-8.3-1.7-11.3-4.7S0 20.3 0 16c0-4.3 1.7-8.3 4.7-11.3S11.7 0 16 0c4.3 0 8.3 1.7 11.3 4.7S32 11.7 32 16c0 4.3-1.7 8.3-4.7 11.3zM16 1C7.7 1 1 7.7 1 16s6.7 15 15 15 15-6.7 15-15S24.3 1 16 1zm-3 20.6c0 .2-.2.3-.4.3-.3-.2-.5-.4-.5-.6V16c0-.2.2-.3.4-.4l8.7-5.4c.3-.2.6 0 .8 0v.8L15 17.6l-2 4zm0-5.3v3l1.2-2.2 3.8-3.7-5 3zm10-.5c-.3 0-.5-.3-.5-.6L24 7.5 6.4 16.7l4.5 2.2c.2 0 .3.2.3.4V24l5.4-3h.5l4 1.7 1-5c0-.3.3-.5.5-.5.3 0 .6.3.5.6l-1 5.7c-.2.2-.3.4-.5.4h-.3l-4.5-2-5.8 3.2h-.4-.4v-5.5L5 17c-.2 0-.3 0-.3-.3 0-.2 0-.4.3-.5l19.5-10c.2-.2.4-.2.6 0 .2 0 .3.3.3.5l-1.8 8.7c0 .2-.2.4-.5.4z"/></svg>