<svg width="40" height="30" viewBox="0 0 40 30" xmlns="http://www.w3.org/2000/svg"><path d="M37.2 30H2.8C1.3 30 0 28.7 0 27V3c0-1.7 1.3-3 2.8-3h34.4C38.7 0 40 1.3 40 3v24c0 1.7-1.3 3-2.8 3zm1.5-27c0-1-.7-1.6-1.5-1.6H2.8C2 1.4 1.3 2 1.3 3v24c0 1 .7 1.6 1.5 1.6h34.4c.8 0 1.5-.6 1.5-1.5V3zM32 26.5c-1 0-1.6-.2-2.3-.7-.7.4-1.5.6-2.4.6-2.5 0-4.6-2-4.6-4.8 0-2.6 2-4.8 4.6-4.8 1 0 1.7.3 2.4.7.7-.4 1.4-.7 2.3-.7 2.6 0 4.7 2.2 4.7 4.8 0 2.7-2 4.8-4.7 4.8zm-3.5-8l-1.2-.2c-1.8 0-3.3 1.5-3.3 3.4 0 2 1.5 3.4 3.3 3.4.5 0 1 0 1.2-.2-.7-1-1.2-2-1.2-3.2 0-1.2.5-2.3 1.2-3.2zm1.2.8c-.6.6-1 1.5-1 2.4 0 1 .4 1.8 1 2.4.6-.6 1-1.4 1-2.4s-.4-1.8-1-2.4zm2.3-1c-.4 0-.8 0-1.2.2.7 1 1.2 2 1.2 3.2 0 1.2-.5 2.3-1.2 3.2l1.2.2c1.8 0 3.3-1.5 3.3-3.4 0-2-1.5-3.4-3.3-3.4zm-12.7 6H19c-.3-.2-.3-.4-.3-.5 0-.3 0-.5.2-.6 0-.3.6-.3.8 0l.2.5s0 .2-.2.3c0 .2-.3.2-.5.2zm0-3.3h-6c-.3 0-.6-.2-.6-.5 0-.4.3-.7.6-.7h6c.4 0 .7.3.7.7 0 .3-.3.6-.7.6zm-4.8-6h-9c-.8 0-1.5-.7-1.5-1.5V7c0-1 .7-1.5 1.5-1.5h9c.8 0 1.5.6 1.5 1.5v6.5c0 .8-.7 1.5-1.5 1.5zm-9.2-4H8V9.4H5.3V11zm.2-4.2s-.2 0-.2.2v1.2H8V7v-.2H5.5zM8 13.5v-1.2H5.3v1.2H8zM14.7 7s0-.2-.2-.2h-5s-.2 0-.2.2v6.5h1.4V9.7c0-.8.6-1.5 1.5-1.5h2.3s.2 0 .2-.2V7zm0 2.5h-2.5s-.2 0-.2.2V11h2.7V9.4zm0 2.8H12v1.2h2.7v-1.2zm-10 7.5h6c.3 0 .6.3.6.7 0 .3-.3.6-.6.6h-6c-.4 0-.7-.2-.7-.5 0-.4.3-.7.7-.7zm0 3.4h.6c.4 0 .7.3.7.7 0 .2-.3.5-.7.5h-.6c-.4 0-.7-.3-.7-.6 0-.5.3-.8.7-.8zm3.3 0h1.3c.4 0 .7.3.7.7 0 .2-.3.5-.7.5H8c-.4 0-.7-.3-.7-.6 0-.5.3-.8.7-.8zm4 0h.7c.3 0 .6.3.6.7 0 .2-.3.5-.6.5H12c-.4 0-.7-.3-.7-.6 0-.5.3-.8.7-.8zm3.3 0h1.4c.3 0 .6.3.6.7 0 .2-.3.5-.6.5h-1.4c-.3 0-.6-.3-.6-.6 0-.5.3-.8.6-.8z"/></svg>