<svg width="30" height="30" viewBox="0 0 30 30" xmlns="http://www.w3.org/2000/svg"><path d="M7 15.7h1.6V17H10v1.6H3V17h1.3v-2.7H7v1.4zm18.7 13H27V27h-1.3v1.6zm-17-13H10v-1.4H8.6v1.4zm20 13H30V27h-1.4v1.6zM11.3 30h3v-1.4h-3V30zm13 0v-1.4h-1.5V30h1.3zm-5.8 0H20v-3h-1.4v3zM7 11.4V13h4.4v-1.6H7zM5.8 13v-1.6H3v3h1.3v-1.5h1.4zm4.3-3H0V0h10v10zM8.6 1.4H1.4v7.2h7.2V1.4zM3 27h4v-4H3v4zm14-1.3V27h1.6v-1.3H17zM7 3H3v4h4V3zm23-3v10H20V0h10zm-1.4 1.4h-7.2v7.2h7.2V1.4zM0 20h10v10H0V20zm1.4 8.6h7.2v-7.2H1.4v7.2zm0-17.2H0v7.2h1.4v-7.2zM20 18.6V20h1.4v-1.4H20zm-4.3 5.7V23h-1.4v1.3h-3V27h3v1.6h1.4v-3H17v-1.3h-1.3zM11.4 5.7h3V4.3h-3v1.4zM23 17h2.7v1.6H27v-4.3h-1.3v-3h-1.4v4.4H20V17h1.4v1.6H23V17zm1.3 4.4H23V20h-1.6v3H17v1.3h3V27h1.4v1.6H23v-3h5.6v-1.3h-4.3v-3zm0 0h1.4v-2.8h-1.4v2.8zm-11.4 0V20h1.3v-1.4h1.4V17H17v-2.7h4.4v-3H20V13h-1.4V7H17V4.4h1.6V0H17v3h-1.3V0h-4.3v3H13V1.3h1.3v3h1.4v4.2H17V10h-1.3v3h-1.4v-3H13V8.6h-1.6v2.8H13V13h-1.6v4H13v-2.7h1.3V17H13v1.6h-1.6V23h3v-1.6h-1.5zM28.5 23v-1.6h-3V23h3zM27 3h-4v4h4V3zM15.8 21.3h3V20H17v-1.4h-1.3v2.8zm3-2.8V17H17v1.6h1.6zM27 13h3v-1.6h-3V13zm1.6 11.3H30V23h-1.4v1.3zm0-8.6H30v-1.4h-1.4v1.4zm-13-7h-1.3V10h1.4V8.6z"/></svg>