<svg width="36" height="36" viewBox="0 0 36 36" xmlns="http://www.w3.org/2000/svg"><path d="M34.8 15v-1.2H36V15h-1.2zm-.6-6H33c0-1-.8-1.8-1.8-1.8V6c1 0 1.8-.8 1.8-1.8h1.2c0 1 .8 1.8 1.8 1.8v1.2c-1 0-1.8.8-1.8 1.8zm-.6-3l-.6.6.6.6.6-.6-.6-.6zm-1.2 21c-1 0-1.8.8-1.8 1.8h-1.2c0-1-.8-1.8-1.8-1.8v-1.2c1 0 1.8-.8 1.8-1.8h1.2c0 1 .8 1.8 1.8 1.8V27zM30 25.8l-.6.6.6.6.6-.6-.6-.6zm-2.4-3h-1.8v6c0 1.7-1.3 3-3 3H9.6v.6c0 .2 0 .3-.2.4L7.2 35v1H6v-1.2c0-.2 0-.3.2-.4l2.2-2.2V22c0-.6-.4-1-1-1-.4 0-.8.4-.8 1v3.8c0 .2 0 .3-.2.4L4 28.6c0 .2-.4.2-.6.2-.3 0-.4-.4-.4-.6v-5.5l-1.8 2V36H0V24.6v-.4l3-3.4V3c0-1.7 1.3-3 3-3h16.8c1.7 0 3 1.3 3 3v6h1.8c1.7 0 3 1.3 3 3v7.8c0 1.7-1.3 3-3 3zm-18 7.8h13.2c1 0 1.8-.8 1.8-1.8v-1.2h-15v3zM24.6 3c0-1-.8-1.8-1.8-1.8H6C5 1.2 4.2 2 4.2 3v1.2h20.4V3zm0 2.4H4.2v21.4l1.2-1.2V22c0-1.3 1-2.2 2-2.2 1.3 0 2.2 1 2.2 2v4.6h15v-3.6h-7.2c0 1.3-1 2.4-2.4 2.4-1.3 0-2.4-1-2.4-2.4V9c0-1.3 1-2.4 2.4-2.4 1.3 0 2.4 1 2.4 2.4h7.2V5.4zm-8.4 17.4h-2.4c0 .7.5 1.2 1.2 1.2s1.2-.5 1.2-1.2zM13.8 9h2.4c0-.7-.5-1.2-1.2-1.2s-1.2.5-1.2 1.2zm15.6 3c0-1-.8-1.8-1.8-1.8H13.8v2.4h15.6V12zm0 1.8H13.8V15h15.6v-1.2zm0 2.4H13.8v5.4h13.8c1 0 1.8-.8 1.8-1.8v-3.6zM27 17.4h1.2v1.2H27v-1.2zm-2.4 0h1.2v1.2h-1.2v-1.2zm-2.4 0h1.2v1.2h-1.2v-1.2zM9.6 18.6H8.4c0-1-.8-1.8-1.8-1.8v-1.2c1 0 1.8-.8 1.8-1.8h1.2c0 1 .8 1.8 1.8 1.8v1.2c-1 0-1.8.8-1.8 1.8zm-.6-3l-.6.6.6.6.6-.6-.6-.6zm24.6 1.8h-1.2v-1.2h1.2v1.2zm-1.2-6h1.2v1.2h-1.2v-1.2zm1.2 3.6h-1.2v-1.2h1.2V15z"/></svg>