<svg width="30" height="34" viewBox="0 0 30 34" xmlns="http://www.w3.org/2000/svg"><path d="M15.5 5h.6c4.4 0 8 3.7 8 8l-.3 2s-.4.3-.7.2c-.2 0-.4-.3-.3-.6V13c0-3.8-3-6.8-6.6-6.8h-.4c-.3 0-.5-.2-.6-.5 0-.3.2-.5.5-.6zm.6 4.7c2 0 3.4 1.5 3.4 3.3 0 .3-.2.6-.5.6-.4 0-.6-.3-.6-.6 0-1.2-1-2.3-2.3-2.3-.2 0-.4-.2-.4-.5s.2-.5.5-.5zM15 8c0-.3.2-.6.5-.6h.6c3.2 0 5.6 2.5 5.6 5.6v.7c0 .2-.3.5-.6.4-.2 0-.5-.2-.4-.5V13c0-2.5-2-4.6-4.5-4.6h-.4c-.3 0-.5 0-.6-.4zm1.4 11l1.7-1.7.5-.2 4 1c.2 0 .3.2.4.4l.4 2.7v.4c-.2.7-.6 1.3-1 2-.8.6-1.7 1-3 1h-.8c-2.7-.6-6.4-2-8.8-4.3-1.2-1-2-2.7-3-4.5 0-.3 0-.6.4-.7.2 0 .5 0 .7.3.6 1.8 1.5 3.2 2.5 4.3 2.3 2.3 5.7 3.5 8.2 4 1.3 0 2.2 0 3-.8.2-.3.5-.8.6-1.3L22 19l-3.4-.8L17 20h-.7c-3.2-1.4-5-3.2-6.5-6.6v-.6l1.8-1.7-.7-3.3-2.4-.4c-.4 0-1 .3-1.2.7-.7.7-1 1.7-.7 3 0 .6.2 1.3.4 2 .2.3 0 .6-.2.7-.3 0-.6 0-.7-.4 0-.7-.2-1.5-.4-2.2-.2-1.5 0-2.8 1-3.7.5-.6 1.2-1 2-1l2.8.4c.2 0 .4.2.4.4l.8 4v.6l-1.7 1.7c1.2 3 2.7 4.4 5.4 5.6zm2 10h-6l-4.8 4.8c-.3.4-1 0-1-.3v-5.7C2.7 25.8 0 21.6 0 17v-5C0 5.2 5.2 0 11.7 0h6.6c2.3 0 4.6.7 6.5 2 .2 0 .3.5 0 .7 0 .2-.4.3-.6 0-1.8-1-3.8-1.6-6-1.6h-6.5C5.7 1 1 6 1 12v5c0 4.3 2.5 8.2 6.4 10 .2 0 .3.2.3.4v4.8l4-4.2.5-.2h6C24.3 27.8 29 23 29 17v-5c0-3-1-5.7-3-7.7-.3-.2-.3-.5 0-.7 0-.2.5-.2.7 0 2 2.2 3.3 5.2 3.3 8.3v5c0 6.6-5.2 12-11.7 12z"/></svg>